<?xml version="1.0" standalone="no"?>
<!DOCTYPE svg PUBLIC "-//W3C//DTD SVG 20010904//EN"
 "http://www.w3.org/TR/2001/REC-SVG-20010904/DTD/svg10.dtd">
<svg version="1.0" xmlns="http://www.w3.org/2000/svg"
 width="820.000000pt" height="588.000000pt" viewBox="0 0 820.000000 588.000000"
 preserveAspectRatio="xMidYMid meet">

<g transform="translate(0.000000,588.000000) scale(0.100000,-0.100000)"
fill="#000000" stroke="none">
<path d="M3707 4875 l-337 -225 0 -278 c0 -297 1 -302 50 -302 48 0 50 9 50
232 0 114 3 208 7 208 4 0 124 -77 265 -172 l258 -171 0 -253 0 -254 -57 37
c-32 20 -98 63 -147 95 -48 32 -94 58 -102 58 -18 0 -54 -36 -54 -54 0 -8 8
-23 18 -34 29 -34 391 -264 406 -259 45 17 395 258 401 276 8 27 -10 59 -39
67 -19 4 -53 -14 -158 -83 -73 -49 -139 -93 -145 -97 -10 -6 -13 46 -13 247
l0 254 258 171 c141 95 261 172 265 172 4 0 7 -94 7 -208 0 -224 2 -232 51
-232 55 0 59 18 59 298 0 159 -4 261 -11 273 -11 21 -662 459 -682 459 -7 0
-164 -101 -350 -225z m642 -90 c132 -88 241 -162 241 -165 0 -10 -530 -355
-541 -352 -16 4 -528 346 -528 352 0 3 120 85 266 182 l267 177 27 -17 c15 -9
135 -89 268 -177z"/>
<path d="M3365 3885 c-192 -141 -354 -264 -359 -275 -12 -27 17 -70 48 -70 14
0 126 76 293 198 149 108 309 225 357 260 66 47 86 68 86 86 0 27 -29 56 -56
56 -10 0 -176 -115 -369 -255z"/>
<path d="M4336 4124 c-19 -19 -20 -44 -3 -66 6 -9 107 -85 222 -168 116 -84
233 -169 260 -189 242 -179 250 -183 281 -136 12 18 14 32 8 45 -13 29 -704
530 -731 530 -12 0 -29 -7 -37 -16z"/>
<path d="M2217 3495 l-337 -225 0 -350 0 -350 340 -227 c305 -203 342 -225
363 -216 29 13 355 229 380 250 9 9 17 26 17 38 0 24 -29 55 -51 55 -8 0 -63
-33 -124 -73 -60 -40 -127 -83 -147 -96 l-38 -23 0 254 0 253 256 170 c141 94
260 172 265 173 5 2 9 -86 9 -201 0 -174 2 -208 16 -221 22 -23 71 -20 84 3
12 23 14 539 2 557 -11 17 -671 454 -685 454 -7 0 -164 -101 -350 -225z m642
-90 c132 -88 241 -163 241 -166 0 -3 -120 -86 -266 -183 l-266 -178 -270 180
-270 180 268 180 c269 180 269 180 295 163 15 -9 135 -88 268 -176z m-595
-454 l256 -171 0 -250 c0 -138 -2 -250 -5 -250 -3 0 -124 79 -270 177 l-265
176 0 250 c0 211 2 248 14 244 8 -3 130 -83 270 -176z"/>
<path d="M5214 3510 c-175 -117 -329 -222 -341 -233 -23 -20 -23 -23 -23 -288
0 -290 2 -299 55 -299 52 0 55 15 55 237 0 115 4 203 9 201 5 -1 124 -79 265
-173 l256 -170 0 -254 0 -253 -22 14 c-190 124 -278 178 -290 178 -23 0 -50
-36 -46 -62 2 -17 47 -53 183 -145 99 -67 193 -127 208 -134 27 -11 41 -3 367
215 l340 226 0 350 0 350 -332 221 c-183 122 -340 224 -349 226 -9 3 -148 -83
-335 -207z m598 -452 l-270 -180 -266 178 c-146 97 -266 180 -266 183 0 3 120
86 267 183 l266 176 270 -180 269 -180 -270 -180z m318 -176 l0 -249 -265
-176 -265 -177 0 254 0 253 257 172 c142 94 261 171 265 171 4 0 8 -112 8
-248z"/>
<path d="M2845 2736 c-10 -15 -13 -31 -8 -44 10 -26 704 -532 731 -532 26 0
54 34 50 61 -2 18 -91 87 -357 281 -219 159 -364 258 -378 258 -13 0 -29 -10
-38 -24z"/>
<path d="M4849 2502 c-290 -211 -355 -263 -357 -284 -4 -30 21 -58 51 -58 26
1 718 502 731 530 12 27 -17 70 -47 70 -14 0 -159 -99 -378 -258z"/>
<path d="M3708 2115 l-338 -225 0 -350 0 -350 332 -221 c183 -122 340 -224
349 -226 20 -5 673 427 688 456 12 22 16 647 5 676 -7 17 -655 455 -684 462
-8 2 -167 -98 -352 -222z m641 -90 c132 -88 241 -162 241 -165 0 -5 -513 -351
-531 -358 -6 -3 -506 324 -533 348 -4 5 113 89 260 188 269 180 269 180 295
163 15 -9 135 -88 268 -176z m-607 -447 l258 -171 0 -254 c0 -201 -3 -253 -12
-247 -7 4 -127 83 -265 176 l-253 168 0 250 c0 138 3 250 7 250 4 0 124 -77
265 -172z m898 -78 l0 -250 -252 -168 c-139 -93 -259 -172 -265 -176 -10 -6
-13 46 -13 247 l0 254 258 171 c141 95 260 172 265 172 4 0 7 -112 7 -250z"/>
</g>
</svg>
